<?xml version="1.0" encoding="utf-8"?>
<!-- Generator: Adobe Illustrator 25.2.3, SVG Export Plug-In . SVG Version: 6.00 Build 0)  -->
<svg version="1.1" id="Layer_1" xmlns="http://www.w3.org/2000/svg" xmlns:xlink="http://www.w3.org/1999/xlink" x="0px" y="0px"
	 viewBox="0 0 390 186.88" style="enable-background:new 0 0 390 186.88;" xml:space="preserve">
<style type="text/css">
	.st0{fill:#1A70B8;}
	.st1{fill:#FFFFFF;}
</style>
<g>
	<g>
		<polygon points="38.48,150.83 38.48,118.31 6.36,118.31 6.36,90.45 38.48,90.45 38.48,49.4 130.69,49.4 118,79.81 73.72,79.81 
			73.72,90.45 113.55,90.45 101.93,118.31 73.72,118.31 73.72,150.83 		"/>
		<path d="M129.19,50.4l-11.86,28.41H72.72v12.64h39.33l-10.79,25.85H72.72v32.53H39.48v-32.53H7.36V91.45h32.12V50.4H129.19
			 M132.19,48.4h-3H39.48h-2v2v39.05H7.36h-2v2v25.85v2h2h30.12v30.53v2h2h33.24h2v-2v-30.53h26.54h1.33l0.51-1.23l10.79-25.85
			l1.16-2.77h-3H74.72v-8.64h42.61h1.33l0.51-1.23l11.86-28.41L132.19,48.4L132.19,48.4z"/>
	</g>
	<g>
		<polygon class="st0" points="36.48,148.83 36.48,116.31 4.36,116.31 4.36,88.45 36.48,88.45 36.48,47.4 128.69,47.4 116,77.81 
			71.72,77.81 71.72,88.45 111.55,88.45 99.93,116.31 71.72,116.31 71.72,148.83 		"/>
		<path class="st1" d="M127.19,48.4l-11.86,28.41H70.72v12.64h39.33l-10.79,25.85H70.72v32.53H37.48v-32.53H5.36V89.45h32.12V48.4
			H127.19 M130.19,46.4h-3H37.48h-2v2v39.05H5.36h-2v2v25.85v2h2h30.12v30.53v2h2h33.24h2v-2v-30.53h26.54h1.33l0.51-1.23
			l10.79-25.85l1.16-2.77h-3H72.72v-8.64h42.61h1.33l0.51-1.23l11.86-28.41L130.19,46.4L130.19,46.4z"/>
	</g>
</g>
<g>
	<polygon class="st0" points="384.91,54.64 384.91,52.96 384.58,53.46 383.4,53.46 383.09,52.99 383.09,54.64 380.34,54.64 
		380.34,50.12 379.5,50.12 379.5,54.64 376.76,54.64 376.76,50.12 375.07,50.12 375.07,47.4 382.68,47.4 384,49.44 385.32,47.4 
		387.64,47.4 387.64,54.64 	"/>
	<path class="st1" d="M386.64,48.4v5.23h-0.73v-4.01l-1.87,2.84h-0.1l-1.85-2.84v4.01h-0.75V48.4h0.8l1.87,2.87l1.85-2.87H386.64
		 M380.19,48.4v0.71h-1.68v4.52h-0.75v-4.52h-1.68V48.4H380.19 M388.64,46.4h-2h-0.78h-1.09l-0.59,0.92L384,47.6l-0.19-0.29
		l-0.59-0.91h-1.04h-2h-4.11h-2v2v0.71v2h1.68v2.52v2h2h0.75h0.84h2h0.75h2h1.82h0.73h2v-2V48.4V46.4L388.64,46.4z"/>
</g>
<g>
	<g>
		<polygon points="286.38,150.83 286.38,79.53 257.25,79.53 257.25,150.83 222.01,150.83 222.01,79.53 200.22,79.53 187.61,49.4 
			373.18,49.4 373.18,79.53 321.05,79.53 321.05,86.76 369.63,86.76 369.63,112.77 321.05,112.77 321.05,121.56 373.89,121.56 
			373.89,150.83 		"/>
		<path d="M372.18,50.4v27.27v0.85h-52.13v9.23h48.58v24.01h-48.58v10.79h52.84v27.27h-85.51V78.53h-31.13v71.31h-33.24V78.53
			h-22.13L189.12,50.4H372.18 M374.18,48.4h-2H189.12h-3l1.16,2.77l11.77,28.12l0.51,1.23h1.33h20.13v69.31v2h2h33.24h2v-2V80.53
			h27.13v69.31v2h2h85.51h2v-2v-27.27v-2h-2h-50.84v-6.79h46.58h2v-2V87.76v-2h-2h-46.58v-5.23h50.13h2v-2v-0.85V50.4V48.4
			L374.18,48.4z"/>
	</g>
	<g>
		<polygon class="st0" points="284.38,148.83 284.38,77.53 255.25,77.53 255.25,148.83 220.01,148.83 220.01,77.53 198.22,77.53 
			185.61,47.4 371.18,47.4 371.18,77.53 319.05,77.53 319.05,84.76 367.63,84.76 367.63,110.77 319.05,110.77 319.05,119.56 
			371.89,119.56 371.89,148.83 		"/>
		<path class="st1" d="M370.18,48.4v27.27v0.85h-52.13v9.23h48.58v24.01h-48.58v10.79h52.84v27.27h-85.51V76.53h-31.13v71.31h-33.24
			V76.53h-22.13L187.12,48.4H370.18 M372.18,46.4h-2H187.12h-3l1.16,2.77l11.77,28.12l0.51,1.23h1.33h20.13v69.31v2h2h33.24h2v-2
			V78.53h27.13v69.31v2h2h85.51h2v-2v-27.27v-2h-2h-50.84v-6.79h46.58h2v-2V85.76v-2h-2h-46.58v-5.23h50.13h2v-2v-0.85V48.4V46.4
			L372.18,46.4z"/>
	</g>
</g>
<g>
	<g>
		<path d="M217.69,150.81c-12.49-2.76-25.32-4.64-38.14-5.58l-0.63-0.05l-3.01-7.66h-33.43l-2.95,7.7l-0.63,0.05
			c-12.58,0.96-25.2,2.82-37.5,5.54l-1.88,0.42L159.55,7.42l17.4,41.94l42.63,101.87L217.69,150.81z M166.9,111.95l-7.65-20.31
			l-7.65,20.31H166.9z"/>
		<path d="M159.54,10.02l16.48,39.72l41.88,100.1c-12.46-2.75-25.24-4.64-38.28-5.6l-3.03-7.71h-34.8l-2.97,7.75
			c-12.82,0.97-25.38,2.85-37.64,5.56L159.54,10.02 M150.17,112.95h18.18l-9.09-24.15L150.17,112.95 M159.55,4.82l-1.85,4.44
			L99.34,149.06l-1.48,3.55l3.76-0.83c12.25-2.71,24.82-4.56,37.36-5.52l1.26-0.1l0.45-1.18l2.48-6.46h32.06l2.53,6.44l0.46,1.17
			l1.25,0.09c12.77,0.94,25.55,2.81,38,5.56l3.76,0.83l-1.49-3.56L177.86,48.97L161.39,9.25L159.55,4.82L159.55,4.82z
			 M153.06,110.95l6.2-16.47l6.2,16.47H153.06L153.06,110.95z"/>
	</g>
	<g>
		<path class="st0" d="M215.69,148.81c-12.49-2.76-25.32-4.64-38.14-5.58l-0.63-0.05l-3.01-7.66h-33.43l-2.95,7.7l-0.63,0.05
			c-12.58,0.96-25.2,2.82-37.5,5.54l-1.88,0.42L157.55,5.42l17.4,41.94l42.63,101.87L215.69,148.81z M164.9,109.95l-7.65-20.31
			l-7.65,20.31H164.9z"/>
		<path class="st1" d="M157.54,8.02l16.48,39.72l41.88,100.1c-12.46-2.75-25.24-4.64-38.28-5.6l-3.03-7.71h-34.8l-2.97,7.75
			c-12.82,0.97-25.38,2.85-37.64,5.56L157.54,8.02 M148.17,110.95h18.18l-9.09-24.15L148.17,110.95 M157.55,2.82l-1.85,4.44
			L97.34,147.06l-1.48,3.55l3.76-0.83c12.25-2.71,24.82-4.56,37.36-5.52l1.26-0.1l0.45-1.18l2.48-6.46h32.06l2.53,6.44l0.46,1.17
			l1.25,0.09c12.77,0.94,25.55,2.81,38,5.56l3.76,0.83l-1.49-3.56L175.86,46.97L159.39,7.25L157.55,2.82L157.55,2.82z
			 M151.06,108.95l6.2-16.47l6.2,16.47H151.06L151.06,108.95z"/>
	</g>
</g>
<g>
	<g>
		<path d="M50.72,184.2c-7.32,0-12.84-5.52-12.84-12.84c0-7.42,5.65-12.97,13.14-12.97c4.94,0,8.92,2.29,11.22,6.45l0.47,0.85
			l-8.04,4.71l-0.49-0.93c-0.81-1.57-1.79-2.23-3.26-2.23c-2.15,0-3.27,2.01-3.27,3.99c0,2.49,1.32,4.12,3.27,4.12
			c1.5,0,2.5-0.68,3.43-2.36l0.49-0.88l8.04,4.54l-0.49,0.87C59.88,181.96,55.95,184.2,50.72,184.2z"/>
		<path d="M51.02,159.39c5.02,0,8.42,2.45,10.34,5.94l-6.3,3.69c-0.85-1.63-2.06-2.77-4.14-2.77c-2.58,0-4.27,2.25-4.27,4.99v0.07
			c0,2.97,1.76,5.06,4.27,5.06c2.15,0,3.36-1.17,4.31-2.87l6.3,3.56c-1.92,3.39-5.12,6.17-10.8,6.17c-6.33,0-11.84-4.76-11.84-11.84
			v-0.07C38.88,164.48,44.2,159.39,51.02,159.39 M51.02,157.39c-7.93,0-14.14,6.11-14.14,13.91v0.07c0,7.76,6.08,13.84,13.84,13.84
			c5.62,0,9.84-2.42,12.54-7.18l0.99-1.74l-1.74-0.99l-6.3-3.56l-0.94-0.53l0.8-0.47l6.3-3.69l1.68-0.98l-0.94-1.71
			C60.63,159.86,56.33,157.39,51.02,157.39L51.02,157.39z M50.92,174.35c-1.68,0-2.27-1.65-2.27-3.06v-0.07
			c0-1.44,0.71-2.99,2.27-2.99c0.92,0,1.63,0.28,2.37,1.7l0.78,1.51l-0.59,1.06C52.62,174.05,51.89,174.35,50.92,174.35
			L50.92,174.35z"/>
		<path d="M83.86,184.2c-7.53,0-13.43-5.64-13.43-12.84c0-7.3,5.93-12.97,13.49-12.97c7.53,0,13.43,5.64,13.43,12.84
			C97.35,178.53,91.42,184.2,83.86,184.2z M83.86,167.14c-2.42,0-3.73,2.11-3.73,4.09c0,2.08,1.33,4.22,3.8,4.22
			c2.42,0,3.73-2.11,3.73-4.09C87.65,169.28,86.32,167.14,83.86,167.14z"/>
		<path d="M83.92,159.39c7.05,0,12.43,5.22,12.43,11.84v0.07c0,6.62-5.45,11.91-12.49,11.91c-7.05,0-12.43-5.22-12.43-11.84v-0.07
			C71.43,164.67,76.88,159.39,83.92,159.39 M83.92,176.45c2.9,0,4.73-2.41,4.73-5.09v-0.07c0-2.71-1.86-5.15-4.8-5.15
			c-2.9,0-4.73,2.41-4.73,5.09v0.07C79.13,174,80.99,176.45,83.92,176.45 M83.92,157.39c-8.13,0-14.49,6.11-14.49,13.91v0.07
			c0,7.76,6.34,13.84,14.43,13.84c8.13,0,14.49-6.11,14.49-13.91v-0.07C98.35,163.47,92.01,157.39,83.92,157.39L83.92,157.39z
			 M83.92,174.45c-1.84,0-2.8-1.59-2.8-3.15v-0.07c0-1.54,0.94-3.09,2.73-3.09c1.84,0,2.8,1.59,2.8,3.15v0.07
			C86.65,172.89,85.72,174.45,83.92,174.45L83.92,174.45z"/>
		<path d="M121.09,183.71l-4.31-6.52h-0.09v6.52h-9.63v-24.84h12.16c4,0,7,0.98,8.93,2.9c1.6,1.6,2.38,3.6,2.38,6.12
			c0,3.23-1.4,5.75-4.05,7.39l5.77,8.42H121.09z M118.98,169.74c0.88,0,1.94-0.21,1.94-1.22c0-0.36,0-1.25-1.9-1.25h-2.33v2.47
			H118.98z"/>
		<path d="M119.21,159.88c4.05,0,6.62,1.01,8.22,2.61c1.37,1.37,2.09,3.07,2.09,5.42v0.06c0,3.33-1.73,5.64-4.5,6.98l5.32,7.76
			h-8.71l-4.31-6.52h-1.63v6.52h-7.63v-22.84H119.21 M115.69,170.74h3.29c1.83,0,2.94-0.82,2.94-2.22v-0.07
			c0-1.47-1.14-2.19-2.9-2.19h-3.33V170.74 M119.21,157.88h-11.16h-2v2v22.84v2h2h7.63h2v-2v-2.33l2.27,3.44l0.59,0.9h1.08h8.71
			h3.79l-2.14-3.13l-4.13-6.03c2.38-1.82,3.67-4.45,3.67-7.58v-0.06c0-2.8-0.87-5.03-2.67-6.83
			C126.73,158.95,123.49,157.88,119.21,157.88L119.21,157.88z M117.69,168.27h1.33c0.54,0,0.81,0.1,0.9,0.14c0,0.01,0,0.03,0,0.04
			v0.07c0,0.02,0,0.04,0,0.05c-0.09,0.06-0.38,0.17-0.93,0.17h-1.29V168.27L117.69,168.27z"/>
		<polygon points="140,183.71 140,158.88 161.47,158.88 161.47,167.14 149.5,167.14 149.5,167.46 160.66,167.46 160.66,174.97 
			149.5,174.97 149.5,175.45 161.63,175.45 161.63,183.71 		"/>
		<path d="M160.47,159.88v6.26H148.5v2.32h11.16v5.51H148.5v2.48h12.14v6.26H141v-22.84H160.47 M162.47,157.88h-2H141h-2v2v22.84v2
			h2h19.64h2v-2v-6.26v-2h-0.98v-0.48v-5.51v-0.32h0.82v-2v-6.26V157.88L162.47,157.88z"/>
		<path d="M200.94,184.14c-4.96,0-9.36-1.46-12.37-4.1l-0.74-0.64l5.15-6.14c-2.08-1.24-3.52-3.09-3.52-6.04
			c0-5.27,4.3-8.76,10.69-8.76c4.57,0,8.04,1.06,10.93,3.35l0.75,0.59l-4.51,6.25c2.76,1.25,4.69,3.23,4.69,6.7
			C212.02,180.71,207.67,184.14,200.94,184.14z M194.34,173.94c2.55,1.77,5.17,2.16,6.96,2.16c0.29,0,0.5-0.02,0.66-0.04
			c-0.34-0.13-0.95-0.3-2.06-0.52C197.99,175.15,196.03,174.68,194.34,173.94z M199.53,166.51c0.32,0.12,0.89,0.28,1.92,0.48
			c1.19,0.22,2.36,0.47,3.46,0.79c-1.55-0.82-3.34-1.29-5.01-1.29C199.75,166.49,199.63,166.49,199.53,166.51z"/>
		<path d="M200.15,159.45c4.4,0,7.67,1.04,10.31,3.13l-3.72,5.16c-2.15-1.57-4.73-2.25-6.85-2.25c-1.14,0-1.66,0.39-1.66,0.95v0.07
			c0,0.62,0.62,1.01,3.03,1.47c5.84,1.08,9.75,2.77,9.75,7.37v0.07c0,4.8-3.95,7.73-10.08,7.73c-4.63,0-8.81-1.3-11.71-3.85
			l4.08-4.86c2.48,1.89,5.32,2.67,7.99,2.67c1.37,0,1.96-0.36,1.96-0.98v-0.07c0-0.65-0.72-1.01-3.16-1.5
			c-5.12-1.04-9.62-2.51-9.62-7.34v-0.07C190.47,162.81,193.86,159.45,200.15,159.45 M200.15,157.45c-6.99,0-11.69,3.9-11.69,9.7
			v0.07c0,2.93,1.27,4.89,3.04,6.24l-3.81,4.54l-1.26,1.5l1.47,1.29c3.2,2.8,7.83,4.35,13.03,4.35c7.34,0,12.08-3.82,12.08-9.73
			v-0.07c0-3.56-1.86-5.71-4.2-7.06l3.26-4.52l1.12-1.55l-1.5-1.19C208.63,158.58,204.96,157.45,200.15,157.45L200.15,157.45z"/>
		<polygon points="227.2,183.71 227.2,174.89 217.85,158.88 228.74,158.88 232.05,165.22 235.39,158.88 246.19,158.88 236.83,174.8 
			236.83,183.71 		"/>
		<path d="M244.45,159.88l-8.61,14.65v8.19h-7.63v-8.09l-8.61-14.75h8.55l3.91,7.5l3.95-7.5H244.45 M247.94,157.88h-3.5H236h-1.21
			l-0.56,1.07l-2.17,4.12l-2.15-4.12l-0.56-1.08h-1.21h-8.55h-3.48l1.76,3.01l8.34,14.28v7.55v2h2h7.63h2v-2v-7.64l8.34-14.18
			L247.94,157.88L247.94,157.88z"/>
		<path d="M263.52,184.14c-4.96,0-9.36-1.46-12.37-4.1l-0.74-0.64l5.15-6.14c-2.08-1.24-3.52-3.09-3.52-6.04
			c0-5.27,4.3-8.76,10.69-8.76c4.57,0,8.04,1.06,10.93,3.35l0.75,0.59l-4.51,6.25c2.76,1.25,4.69,3.23,4.69,6.7
			C274.6,180.71,270.25,184.14,263.52,184.14z M256.92,173.94c2.55,1.78,5.17,2.16,6.96,2.16c0.29,0,0.5-0.02,0.66-0.04
			c-0.34-0.13-0.95-0.3-2.06-0.52C260.57,175.15,258.61,174.68,256.92,173.94z M262.12,166.51c0.32,0.12,0.89,0.28,1.92,0.48
			c1.19,0.22,2.36,0.47,3.46,0.79c-1.55-0.82-3.34-1.29-5.01-1.29C262.33,166.49,262.21,166.49,262.12,166.51z"/>
		<path d="M262.74,159.45c4.4,0,7.67,1.04,10.31,3.13l-3.72,5.16c-2.15-1.57-4.73-2.25-6.85-2.25c-1.14,0-1.66,0.39-1.66,0.95v0.07
			c0,0.62,0.62,1.01,3.03,1.47c5.84,1.08,9.75,2.77,9.75,7.37v0.07c0,4.8-3.95,7.73-10.08,7.73c-4.63,0-8.81-1.3-11.71-3.85
			l4.08-4.86c2.48,1.89,5.32,2.67,7.99,2.67c1.37,0,1.96-0.36,1.96-0.98v-0.07c0-0.65-0.72-1.01-3.16-1.5
			c-5.12-1.04-9.62-2.51-9.62-7.34v-0.07C253.05,162.81,256.44,159.45,262.74,159.45 M262.74,157.45c-6.99,0-11.69,3.9-11.69,9.7
			v0.07c0,2.93,1.27,4.89,3.04,6.24l-3.81,4.54l-1.26,1.5l1.47,1.29c3.2,2.8,7.82,4.35,13.03,4.35c7.34,0,12.08-3.82,12.08-9.73
			v-0.07c0-3.56-1.86-5.71-4.2-7.06l3.26-4.52l1.12-1.55l-1.5-1.19C271.21,158.58,267.54,157.45,262.74,157.45L262.74,157.45z"/>
		<polygon points="289,183.71 289,167.33 282.28,167.33 282.28,158.88 305.36,158.88 305.36,167.33 298.64,167.33 298.64,183.71 		
			"/>
		<path d="M304.36,159.88v6.46h-6.72v16.38H290v-16.38h-6.72v-6.46H304.36 M306.36,157.88h-2h-21.08h-2v2v6.46v2h2H288v14.38v2h2
			h7.63h2v-2v-14.38h4.72h2v-2v-6.46V157.88L306.36,157.88z"/>
		<polygon points="314.7,183.71 314.7,158.88 336.18,158.88 336.18,167.14 324.2,167.14 324.2,167.46 335.36,167.46 335.36,174.97 
			324.2,174.97 324.2,175.45 336.34,175.45 336.34,183.71 		"/>
		<path d="M335.18,159.88v6.26H323.2v2.32h11.16v5.51H323.2v2.48h12.14v6.26H315.7v-22.84H335.18 M337.18,157.88h-2H315.7h-2v2
			v22.84v2h2h19.64h2v-2v-6.26v-2h-0.98v-0.48v-5.51v-0.32h0.82v-2v-6.26V157.88L337.18,157.88z"/>
		<polygon points="364.12,183.71 364.12,174.78 360.41,180.51 359.19,180.51 355.48,174.78 355.48,183.71 346.01,183.71 
			346.01,158.88 355.53,158.88 359.86,165.98 364.19,158.88 373.72,158.88 373.72,183.71 		"/>
		<path d="M372.72,159.88v22.84h-7.6v-11.32l-5.25,8.12h-0.13l-5.25-8.12v11.32h-7.47v-22.84h7.96l4.89,8.03l4.89-8.03H372.72
			 M374.72,157.88h-2h-7.96h-1.12l-0.58,0.96l-3.19,5.22l-3.19-5.22l-0.58-0.96h-1.12h-7.96h-2v2v22.84v2h2h7.47h2v-2v-4.54
			l1.57,2.43l0.59,0.91h1.09h0.13h1.09l0.59-0.91l1.57-2.43v4.54v2h2h7.6h2v-2v-22.84V157.88L374.72,157.88z"/>
	</g>
	<g>
		<g>
			<g>
				<path class="st0" d="M48.72,182.2c-7.32,0-12.84-5.52-12.84-12.84c0-7.42,5.65-12.97,13.14-12.97c4.94,0,8.92,2.29,11.22,6.45
					l0.47,0.85l-8.04,4.71l-0.49-0.93c-0.81-1.57-1.79-2.23-3.26-2.23c-2.15,0-3.27,2.01-3.27,3.99c0,2.49,1.32,4.12,3.27,4.12
					c1.5,0,2.5-0.68,3.43-2.36l0.49-0.88l8.04,4.54l-0.49,0.87C57.88,179.96,53.95,182.2,48.72,182.2z"/>
				<path class="st1" d="M49.02,157.39c5.02,0,8.42,2.45,10.34,5.94l-6.3,3.69c-0.85-1.63-2.06-2.77-4.14-2.77
					c-2.58,0-4.27,2.25-4.27,4.99v0.07c0,2.97,1.76,5.06,4.27,5.06c2.15,0,3.36-1.17,4.31-2.87l6.3,3.56
					c-1.92,3.39-5.12,6.17-10.8,6.17c-6.33,0-11.84-4.76-11.84-11.84v-0.07C36.88,162.48,42.2,157.39,49.02,157.39 M49.02,155.39
					c-7.93,0-14.14,6.11-14.14,13.91v0.07c0,7.76,6.08,13.84,13.84,13.84c5.62,0,9.84-2.42,12.54-7.18l0.99-1.74l-1.74-0.99
					l-6.3-3.56l-0.94-0.53l0.8-0.47l6.3-3.69l1.68-0.98l-0.94-1.71C58.63,157.86,54.33,155.39,49.02,155.39L49.02,155.39z
					 M48.92,172.35c-1.68,0-2.27-1.65-2.27-3.06v-0.07c0-1.44,0.71-2.99,2.27-2.99c0.92,0,1.63,0.28,2.37,1.7l0.78,1.51l-0.59,1.06
					C50.62,172.05,49.89,172.35,48.92,172.35L48.92,172.35z"/>
			</g>
			<g>
				<path class="st0" d="M81.86,182.2c-7.53,0-13.43-5.64-13.43-12.84c0-7.3,5.93-12.97,13.49-12.97c7.53,0,13.43,5.64,13.43,12.84
					C95.35,176.53,89.42,182.2,81.86,182.2z M81.86,165.14c-2.42,0-3.73,2.11-3.73,4.09c0,2.08,1.33,4.22,3.8,4.22
					c2.42,0,3.73-2.11,3.73-4.09C85.65,167.28,84.32,165.14,81.86,165.14z"/>
				<path class="st1" d="M81.92,157.39c7.05,0,12.43,5.22,12.43,11.84v0.07c0,6.62-5.45,11.91-12.49,11.91
					c-7.05,0-12.43-5.22-12.43-11.84v-0.07C69.43,162.67,74.88,157.39,81.92,157.39 M81.92,174.45c2.9,0,4.73-2.41,4.73-5.09v-0.07
					c0-2.71-1.86-5.15-4.8-5.15c-2.9,0-4.73,2.41-4.73,5.09v0.07C77.13,172,78.99,174.45,81.92,174.45 M81.92,155.39
					c-8.13,0-14.49,6.11-14.49,13.91v0.07c0,7.76,6.34,13.84,14.43,13.84c8.13,0,14.49-6.11,14.49-13.91v-0.07
					C96.35,161.47,90.01,155.39,81.92,155.39L81.92,155.39z M81.92,172.45c-1.84,0-2.8-1.59-2.8-3.15v-0.07
					c0-1.54,0.94-3.09,2.73-3.09c1.84,0,2.8,1.59,2.8,3.15v0.07C84.65,170.89,83.72,172.45,81.92,172.45L81.92,172.45z"/>
			</g>
			<g>
				<path class="st0" d="M119.09,181.71l-4.31-6.52h-0.09v6.52h-9.63v-24.84h12.16c4,0,7,0.98,8.93,2.9c1.6,1.6,2.38,3.6,2.38,6.12
					c0,3.23-1.4,5.75-4.05,7.39l5.77,8.42H119.09z M116.98,167.74c0.88,0,1.94-0.21,1.94-1.22c0-0.36,0-1.25-1.9-1.25h-2.33v2.47
					H116.98z"/>
				<path class="st1" d="M117.21,157.88c4.05,0,6.62,1.01,8.22,2.61c1.37,1.37,2.09,3.07,2.09,5.42v0.06c0,3.33-1.73,5.64-4.5,6.98
					l5.32,7.76h-8.71l-4.31-6.52h-1.63v6.52h-7.63v-22.84H117.21 M113.69,168.74h3.29c1.83,0,2.94-0.82,2.94-2.22v-0.07
					c0-1.47-1.14-2.19-2.9-2.19h-3.33V168.74 M117.21,155.88h-11.16h-2v2v22.84v2h2h7.63h2v-2v-2.33l2.27,3.44l0.59,0.9h1.08h8.71
					h3.79l-2.14-3.13l-4.13-6.03c2.38-1.82,3.67-4.45,3.67-7.58v-0.06c0-2.8-0.87-5.03-2.67-6.83
					C124.73,156.95,121.49,155.88,117.21,155.88L117.21,155.88z M115.69,166.27h1.33c0.54,0,0.81,0.1,0.9,0.14c0,0.01,0,0.03,0,0.04
					v0.07c0,0.02,0,0.04,0,0.05c-0.09,0.06-0.38,0.17-0.93,0.17h-1.29V166.27L115.69,166.27z"/>
			</g>
			<g>
				<polygon class="st0" points="138,181.71 138,156.88 159.47,156.88 159.47,165.14 147.5,165.14 147.5,165.46 158.66,165.46 
					158.66,172.97 147.5,172.97 147.5,173.45 159.63,173.45 159.63,181.71 				"/>
				<path class="st1" d="M158.47,157.88v6.26H146.5v2.32h11.16v5.51H146.5v2.48h12.14v6.26H139v-22.84H158.47 M160.47,155.88h-2H139
					h-2v2v22.84v2h2h19.64h2v-2v-6.26v-2h-0.98v-0.48v-5.51v-0.32h0.82v-2v-6.26V155.88L160.47,155.88z"/>
			</g>
			<g>
				<path class="st0" d="M198.94,182.14c-4.96,0-9.36-1.46-12.37-4.1l-0.74-0.64l5.15-6.14c-2.08-1.24-3.52-3.09-3.52-6.04
					c0-5.27,4.3-8.76,10.69-8.76c4.57,0,8.04,1.06,10.93,3.35l0.75,0.59l-4.51,6.25c2.76,1.25,4.69,3.23,4.69,6.7
					C210.02,178.71,205.67,182.14,198.94,182.14z M192.34,171.94c2.55,1.77,5.17,2.16,6.96,2.16c0.29,0,0.5-0.02,0.66-0.04
					c-0.34-0.13-0.95-0.3-2.06-0.52C195.99,173.15,194.03,172.68,192.34,171.94z M197.53,164.51c0.32,0.12,0.89,0.28,1.92,0.48
					c1.19,0.22,2.36,0.47,3.46,0.79c-1.55-0.82-3.34-1.29-5.01-1.29C197.75,164.49,197.63,164.49,197.53,164.51z"/>
				<path class="st1" d="M198.15,157.45c4.4,0,7.67,1.04,10.31,3.13l-3.72,5.16c-2.15-1.57-4.73-2.25-6.85-2.25
					c-1.14,0-1.66,0.39-1.66,0.95v0.07c0,0.62,0.62,1.01,3.03,1.47c5.84,1.08,9.75,2.77,9.75,7.37v0.07c0,4.8-3.95,7.73-10.08,7.73
					c-4.63,0-8.81-1.3-11.71-3.85l4.08-4.86c2.48,1.89,5.32,2.67,7.99,2.67c1.37,0,1.96-0.36,1.96-0.98v-0.07
					c0-0.65-0.72-1.01-3.16-1.5c-5.12-1.04-9.62-2.51-9.62-7.34v-0.07C188.47,160.81,191.86,157.45,198.15,157.45 M198.15,155.45
					c-6.99,0-11.69,3.9-11.69,9.7v0.07c0,2.93,1.27,4.89,3.04,6.24l-3.81,4.54l-1.26,1.5l1.47,1.29c3.2,2.8,7.83,4.35,13.03,4.35
					c7.34,0,12.08-3.82,12.08-9.73v-0.07c0-3.56-1.86-5.71-4.2-7.06l3.26-4.52l1.12-1.55l-1.5-1.19
					C206.63,156.58,202.96,155.45,198.15,155.45L198.15,155.45z"/>
			</g>
			<g>
				<polygon class="st0" points="225.2,181.71 225.2,172.89 215.85,156.88 226.74,156.88 230.05,163.22 233.39,156.88 
					244.19,156.88 234.83,172.8 234.83,181.71 				"/>
				<path class="st1" d="M242.45,157.88l-8.61,14.65v8.19h-7.63v-8.09l-8.61-14.75h8.55l3.91,7.5l3.95-7.5H242.45 M245.94,155.88
					h-3.5H234h-1.21l-0.56,1.07l-2.17,4.12l-2.15-4.12l-0.56-1.08h-1.21h-8.55h-3.48l1.76,3.01l8.34,14.28v7.55v2h2h7.63h2v-2v-7.64
					l8.34-14.18L245.94,155.88L245.94,155.88z"/>
			</g>
			<g>
				<path class="st0" d="M261.52,182.14c-4.96,0-9.36-1.46-12.37-4.1l-0.74-0.64l5.15-6.14c-2.08-1.24-3.52-3.09-3.52-6.04
					c0-5.27,4.3-8.76,10.69-8.76c4.57,0,8.04,1.06,10.93,3.35l0.75,0.59l-4.51,6.25c2.76,1.25,4.69,3.23,4.69,6.7
					C272.6,178.71,268.25,182.14,261.52,182.14z M254.92,171.94c2.55,1.78,5.17,2.16,6.96,2.16c0.29,0,0.5-0.02,0.66-0.04
					c-0.34-0.13-0.95-0.3-2.06-0.52C258.57,173.15,256.61,172.68,254.92,171.94z M260.12,164.51c0.32,0.12,0.89,0.28,1.92,0.48
					c1.19,0.22,2.36,0.47,3.46,0.79c-1.55-0.82-3.34-1.29-5.01-1.29C260.33,164.49,260.21,164.49,260.12,164.51z"/>
				<path class="st1" d="M260.74,157.45c4.4,0,7.67,1.04,10.31,3.13l-3.72,5.16c-2.15-1.57-4.73-2.25-6.85-2.25
					c-1.14,0-1.66,0.39-1.66,0.95v0.07c0,0.62,0.62,1.01,3.03,1.47c5.84,1.08,9.75,2.77,9.75,7.37v0.07c0,4.8-3.95,7.73-10.08,7.73
					c-4.63,0-8.81-1.3-11.71-3.85l4.08-4.86c2.48,1.89,5.32,2.67,7.99,2.67c1.37,0,1.96-0.36,1.96-0.98v-0.07
					c0-0.65-0.72-1.01-3.16-1.5c-5.12-1.04-9.62-2.51-9.62-7.34v-0.07C251.05,160.81,254.44,157.45,260.74,157.45 M260.74,155.45
					c-6.99,0-11.69,3.9-11.69,9.7v0.07c0,2.93,1.27,4.89,3.04,6.24l-3.81,4.54l-1.26,1.5l1.47,1.29c3.2,2.8,7.82,4.35,13.03,4.35
					c7.34,0,12.08-3.82,12.08-9.73v-0.07c0-3.56-1.86-5.71-4.2-7.06l3.26-4.52l1.12-1.55l-1.5-1.19
					C269.21,156.58,265.54,155.45,260.74,155.45L260.74,155.45z"/>
			</g>
			<g>
				<polygon class="st0" points="287,181.71 287,165.33 280.28,165.33 280.28,156.88 303.36,156.88 303.36,165.33 296.64,165.33 
					296.64,181.71 				"/>
				<path class="st1" d="M302.36,157.88v6.46h-6.72v16.38H288v-16.38h-6.72v-6.46H302.36 M304.36,155.88h-2h-21.08h-2v2v6.46v2h2
					H286v14.38v2h2h7.63h2v-2v-14.38h4.72h2v-2v-6.46V155.88L304.36,155.88z"/>
			</g>
			<g>
				<polygon class="st0" points="312.7,181.71 312.7,156.88 334.18,156.88 334.18,165.14 322.2,165.14 322.2,165.46 333.36,165.46 
					333.36,172.97 322.2,172.97 322.2,173.45 334.34,173.45 334.34,181.71 				"/>
				<path class="st1" d="M333.18,157.88v6.26H321.2v2.32h11.16v5.51H321.2v2.48h12.14v6.26H313.7v-22.84H333.18 M335.18,155.88h-2
					H313.7h-2v2v22.84v2h2h19.64h2v-2v-6.26v-2h-0.98v-0.48v-5.51v-0.32h0.82v-2v-6.26V155.88L335.18,155.88z"/>
			</g>
			<g>
				<polygon class="st0" points="362.12,181.71 362.12,172.78 358.41,178.51 357.19,178.51 353.48,172.78 353.48,181.71 
					344.01,181.71 344.01,156.88 353.53,156.88 357.86,163.98 362.19,156.88 371.72,156.88 371.72,181.71 				"/>
				<path class="st1" d="M370.72,157.88v22.84h-7.6v-11.32l-5.25,8.12h-0.13l-5.25-8.12v11.32h-7.47v-22.84h7.96l4.89,8.03
					l4.89-8.03H370.72 M372.72,155.88h-2h-7.96h-1.12l-0.58,0.96l-3.19,5.22l-3.19-5.22l-0.58-0.96h-1.12h-7.96h-2v2v22.84v2h2h7.47
					h2v-2v-4.54l1.57,2.43l0.59,0.91h1.09h0.13h1.09l0.59-0.91l1.57-2.43v4.54v2h2h7.6h2v-2v-22.84V155.88L372.72,155.88z"/>
			</g>
		</g>
	</g>
</g>
</svg>
