<?xml version="1.0" encoding="UTF-8" standalone="no"?><!DOCTYPE svg PUBLIC "-//W3C//DTD SVG 1.1//EN" "http://www.w3.org/Graphics/SVG/1.1/DTD/svg11.dtd"><svg width="100%" height="100%" viewBox="0 0 386 150" version="1.1" xmlns="http://www.w3.org/2000/svg" xmlns:xlink="http://www.w3.org/1999/xlink" xml:space="preserve" xmlns:serif="http://www.serif.com/" style="fill-rule:evenodd;clip-rule:evenodd;stroke-linejoin:round;stroke-miterlimit:2;"><g><path d="M35.123,148.216l0,-32.527l-32.123,0l0,-27.852l32.123,0l0,-41.051l92.208,0l-12.693,30.409l-44.277,0l0,10.642l39.835,0l-11.627,27.852l-28.208,0l0,32.527l-35.238,0Z" style="fill:#1a1a19;fill-rule:nonzero;"/><path d="M128.832,45.786l-94.709,0l0,41.051l-32.123,0l0,29.852l32.123,0l0,32.527l37.238,0l0,-32.527l27.875,0l0.513,-1.23l10.792,-25.852l1.156,-2.77l-40.336,0l0,-8.642l43.944,0l0.513,-1.23l11.858,-28.408l1.156,-2.771Zm-3.002,2l-11.858,28.409l-44.611,0l0,12.642l39.334,0l-10.792,25.852l-28.542,0l0,32.527l-33.238,0l0,-32.527l-32.123,0l0,-25.852l32.123,0l0,-41.051l89.707,0Z" style="fill:#1a1a19;fill-rule:nonzero;"/><path d="M33.123,146.216l0,-32.527l-32.123,0l0,-27.852l32.123,0l0,-41.051l92.208,0l-12.693,30.409l-44.277,0l0,10.642l39.835,0l-11.627,27.852l-28.208,0l0,32.527l-35.238,0Z" style="fill:#1671b9;fill-rule:nonzero;"/><path d="M126.832,43.786l-94.709,0l0,41.051l-32.123,0l0,29.852l32.123,0l0,32.527l37.238,0l0,-32.527l27.875,0l0.513,-1.23l10.792,-25.852l1.156,-2.77l-40.336,0l0,-8.642l43.944,0l0.513,-1.23l11.858,-28.408l1.156,-2.771Zm-3.002,2l-11.858,28.409l-44.611,0l0,12.642l39.334,0l-10.792,25.852l-28.542,0l0,32.527l-33.238,0l0,-32.527l-32.123,0l0,-25.852l32.123,0l0,-41.051l89.707,0Z" style="fill:#fff;fill-rule:nonzero;"/><path d="M381.554,52.02l0,-1.675l-0.33,0.502l-1.182,0l-0.31,-0.475l0,1.648l-2.748,0l0,-4.52l-0.838,0l0,4.52l-2.747,0l0,-4.52l-1.683,0l0,-2.714l7.608,0l1.323,2.033l1.311,-2.033l2.327,0l0,7.234l-2.731,0Z" style="fill:#1671b9;fill-rule:nonzero;"/><path d="M385.285,43.786l-3.871,0l-0.591,0.916l-0.18,0.278l-0.185,-0.285l-0.592,-0.909l-9.15,0l0,4.714l1.683,0l0,4.52l12.886,0l0,-9.234Zm-8.457,2l0,0.714l-1.682,0l0,4.52l-0.747,0l0,-4.52l-1.683,0l0,-0.714l4.112,0Zm6.457,0l0,5.234l-0.731,0l0,-4.011l-1.869,2.838l-0.102,0l-1.851,-2.838l0,4.011l-0.748,0l0,-5.234l0.798,0l1.869,2.871l1.852,-2.871l0.782,0Z" style="fill:#fff;fill-rule:nonzero;"/><path d="M283.021,148.216l0,-71.306l-29.126,0l0,71.306l-35.238,0l0,-71.306l-21.796,0l-12.606,-30.124l185.565,0l0,30.124l-52.13,0l0,7.234l48.579,0l0,26.006l-48.579,0l0,8.794l52.84,0l0,29.272l-87.509,0Z" style="fill:#1a1a19;fill-rule:nonzero;"/><path d="M370.82,45.786l-188.067,0l1.16,2.772l11.769,28.124l0.514,1.228l21.461,0l0,71.306l37.238,0l0,-71.306l27.126,0l0,71.306l89.509,0l0,-31.272l-52.84,0l0,-6.794l48.579,0l0,-28.006l-48.579,0l0,-5.234l52.13,0l0,-32.124Zm-2,2l0,28.124l-52.13,0l0,9.234l48.579,0l0,24.006l-48.579,0l0,10.794l52.84,0l0,27.272l-85.509,0l0,-71.306l-31.126,0l0,71.306l-33.238,0l0,-71.306l-22.13,0l-11.769,-28.124l183.062,0Z" style="fill:#1a1a19;fill-rule:nonzero;"/><path d="M281.021,146.216l0,-71.306l-29.126,0l0,71.306l-35.238,0l0,-71.306l-21.796,0l-12.606,-30.124l185.565,0l0,30.124l-52.13,0l0,7.234l48.579,0l0,26.006l-48.579,0l0,8.794l52.84,0l0,29.272l-87.509,0Z" style="fill:#1671b9;fill-rule:nonzero;"/><path d="M368.82,43.786l-188.067,0l1.16,2.772l11.769,28.124l0.514,1.228l21.461,0l0,71.306l37.238,0l0,-71.306l27.126,0l0,71.306l89.509,0l0,-31.272l-52.84,0l0,-6.794l48.579,0l0,-28.006l-48.579,0l0,-5.234l52.13,0l0,-32.124Zm-2,2l0,28.124l-52.13,0l0,9.234l48.579,0l0,24.006l-48.579,0l0,10.794l52.84,0l0,27.272l-85.509,0l0,-71.306l-31.126,0l0,71.306l-33.238,0l0,-71.306l-22.13,0l-11.769,-28.124l183.062,0Z" style="fill:#fff;fill-rule:nonzero;"/><path d="M163.546,109.33l-7.646,-20.309l-7.646,20.309l15.292,0Zm50.784,38.863c-12.491,-2.759 -25.323,-4.637 -38.141,-5.581l-0.626,-0.046l-3.015,-7.657l-33.431,0l-2.949,7.7l-0.631,0.047c-12.585,0.958 -25.201,2.82 -37.497,5.537l-1.881,0.415l60.029,-143.807l17.397,41.937l42.627,101.871l-1.882,-0.416Z" style="fill:#1a1a19;fill-rule:nonzero;"/><path d="M149.7,108.33l6.2,-16.47l6.201,16.47l-12.401,0Zm6.49,-106.132l-1.851,4.436l-58.361,139.812l-1.483,3.554l3.76,-0.831c12.251,-2.707 24.82,-4.562 37.358,-5.515l1.262,-0.096l0.454,-1.184l2.476,-6.465l32.062,0l2.535,6.438l0.46,1.17l1.254,0.092c12.77,0.941 25.554,2.812 37.998,5.56l3.764,0.831l-1.488,-3.556l-41.883,-100.095l-16.475,-39.712l-1.842,-4.439Zm-9.38,108.132l18.181,0l-9.091,-24.147l-9.09,24.147Zm9.375,-102.926l16.477,39.717l41.883,100.095c-12.46,-2.752 -25.241,-4.641 -38.282,-5.601l-3.034,-7.706l-34.8,0l-2.968,7.75c-12.818,0.975 -25.383,2.85 -37.637,5.557l58.361,-139.812Z" style="fill:#1a1a19;fill-rule:nonzero;"/><path d="M161.546,107.33l-7.646,-20.309l-7.646,20.309l15.292,0Zm50.784,38.863c-12.491,-2.759 -25.323,-4.637 -38.141,-5.581l-0.626,-0.046l-3.015,-7.657l-33.431,0l-2.949,7.7l-0.631,0.047c-12.585,0.958 -25.201,2.82 -37.497,5.537l-1.881,0.415l60.029,-143.807l17.397,41.937l42.627,101.871l-1.882,-0.416Z" style="fill:#1671b9;fill-rule:nonzero;"/><path d="M147.7,106.33l6.2,-16.47l6.201,16.47l-12.401,0Zm6.49,-106.132l-1.851,4.436l-58.361,139.812l-1.483,3.554l3.76,-0.831c12.251,-2.707 24.82,-4.562 37.358,-5.515l1.262,-0.096l0.454,-1.184l2.476,-6.465l32.062,0l2.535,6.438l0.46,1.17l1.254,0.092c12.77,0.941 25.554,2.812 37.998,5.56l3.764,0.831l-1.488,-3.556l-41.883,-100.095l-16.475,-39.712l-1.842,-4.439Zm-9.38,108.132l18.181,0l-9.091,-24.147l-9.09,24.147Zm9.375,-102.926l16.477,39.717l41.883,100.095c-12.46,-2.752 -25.241,-4.641 -38.282,-5.601l-3.034,-7.706l-34.8,0l-2.968,7.75c-12.818,0.975 -25.383,2.85 -37.637,5.557l58.361,-139.812Z" style="fill:#fff;fill-rule:nonzero;"/><path d="M193.846,26.338c0.93,0 1.401,-0.286 1.401,-0.849c0,-0.323 0,-0.897 -1.376,-0.897l-0.537,0l0,1.746l0.512,0Zm-8.128,10.568l0,-18.802l8.561,0c5.33,0 8.513,2.608 8.513,6.977c0,4.499 -3.308,7.264 -8.633,7.264l-0.825,0l0,4.561l-7.616,0Z" style="fill:#1a1a19;fill-rule:nonzero;"/><path d="M194.279,17.104l-9.561,0l0,20.802l9.616,0l0,-4.562c5.751,-0.064 9.458,-3.274 9.458,-8.215c0,-4.968 -3.646,-8.025 -9.513,-8.025Zm-1.945,10.234l1.512,0c1.441,0 2.401,-0.649 2.401,-1.849l0,-0.048c0,-1.224 -0.888,-1.849 -2.376,-1.849l-1.537,0l0,3.746Zm1.945,-8.234c4.464,0 7.513,1.992 7.513,5.977l0,0.048c0,4.056 -3.097,6.216 -7.633,6.216l-1.825,0l0,4.561l-5.616,0l0,-16.802l7.561,0Z" style="fill:#1a1a19;fill-rule:nonzero;"/><path d="M213.55,24.713c-1.629,0 -2.48,1.38 -2.48,2.744c0,1.436 0.868,2.841 2.528,2.841c1.629,0 2.481,-1.381 2.481,-2.745c0,-1.435 -0.869,-2.84 -2.529,-2.84Zm0,12.553c-5.688,0 -10.144,-4.266 -10.144,-9.713c0,-5.521 4.476,-9.808 10.192,-9.808c5.69,0 10.146,4.266 10.146,9.712c0,5.522 -4.478,9.809 -10.194,9.809Z" style="fill:#1a1a19;fill-rule:nonzero;"/><path d="M213.598,29.298c-1.05,0 -1.528,-0.929 -1.528,-1.792c0,-0.652 0.309,-1.793 1.48,-1.793c1.05,0 1.529,0.929 1.529,1.793c0,0.65 -0.31,1.792 -1.481,1.792Zm0,-12.553c-6.276,0 -11.192,4.726 -11.192,10.761c0,6.055 4.895,10.76 11.144,10.76c6.277,0 11.194,-4.726 11.194,-10.76c0,-6.056 -4.896,-10.761 -11.146,-10.761Zm0,14.553c2.137,0 3.481,-1.777 3.481,-3.745l0,-0.047c0,-1.993 -1.369,-3.793 -3.529,-3.793c-2.135,0 -3.48,1.776 -3.48,3.744l0,0.049c0,1.992 1.368,3.792 3.528,3.792Zm0,-12.553c5.185,0 9.146,3.84 9.146,8.712l0,0.049c0,4.872 -4.009,8.76 -9.194,8.76c-5.184,0 -9.144,-3.84 -9.144,-8.713l0,-0.047c0,-4.873 4.008,-8.761 9.192,-8.761Z" style="fill:#1a1a19;fill-rule:nonzero;"/><path d="M239.749,37.026l-2.247,-6.352l-2.245,6.352l-6.33,0l-6.145,-18.922l8.005,0l1.688,5.731l1.932,-5.779l6.288,0l1.932,5.78l1.689,-5.732l7.908,0l-6.146,18.922l-6.329,0Z" style="fill:#1a1a19;fill-rule:nonzero;"/><path d="M241.416,17.056l-7.73,0l-0.456,1.367l-0.695,2.078l-0.577,-1.962l-0.423,-1.435l-10.129,0l0.849,2.618l5.496,16.922l0.45,1.382l7.763,0l0.472,-1.333l1.066,-3.018l1.068,3.018l0.472,1.333l7.762,0l0.449,-1.382l5.497,-16.922l0.851,-2.618l-10.033,0l-0.422,1.435l-0.579,1.963l-0.695,-2.079l-0.456,-1.367Zm-1.441,2l2.712,8.114l2.377,-8.066l5.784,0l-5.497,16.922l-4.895,0l-2.954,-8.352l-2.952,8.352l-4.896,0l-5.496,-16.922l5.881,0l2.376,8.066l2.711,-8.114l4.849,0Z" style="fill:#1a1a19;fill-rule:nonzero;"/><path d="M252.607,36.906l0,-18.802l16.329,0l0,6.609l-0.6,0l0,5.585l0.72,0l0,6.608l-16.449,0Z" style="fill:#1a1a19;fill-rule:nonzero;"/><path d="M269.936,17.104l-18.329,0l0,20.802l18.449,0l0,-8.608l-0.72,0l0,-3.585l0.6,0l0,-8.609Zm-2,2l0,4.609l-8.809,0l0,1.704l8.209,0l0,4.056l-8.209,0l0,1.825l8.929,0l0,4.608l-14.449,0l0,-16.802l14.329,0Z" style="fill:#1a1a19;fill-rule:nonzero;"/><path d="M279.408,26.097c0.769,0 1.16,-0.212 1.16,-0.631c0,-0.231 0,-0.657 -1.137,-0.657l-1.448,0l0,1.288l1.425,0Zm1.406,10.809l-2.831,-4.289l0,4.289l-7.616,0l0,-18.802l9.209,0c3.013,0 5.287,0.745 6.756,2.214c1.23,1.231 1.829,2.765 1.829,4.691c0,2.345 -1.012,4.255 -2.876,5.512l4.372,6.385l-8.843,0Z" style="fill:#1a1a19;fill-rule:nonzero;"/><path d="M279.576,17.104l-10.209,0l0,20.802l9.616,0l0,-1.959l0.7,1.061l0.593,0.898l11.278,0l-2.143,-3.13l-2.764,-4.036c1.636,-1.419 2.514,-3.376 2.514,-5.683c0,-2.253 -0.695,-4.018 -2.122,-5.446c-1.664,-1.664 -4.174,-2.507 -7.463,-2.507Zm-2.593,9.993l2.425,0c1.343,0 2.16,-0.6 2.16,-1.631l0,-0.049c0,-1.08 -0.84,-1.608 -2.137,-1.608l-2.448,0l0,3.288Zm2.593,-7.993c2.976,0 4.872,0.744 6.049,1.921c1.007,1.008 1.536,2.256 1.536,3.984l0,0.048c0,2.449 -1.273,4.153 -3.313,5.136l3.912,5.713l-6.408,0l-3.169,-4.801l-1.2,0l0,4.801l-5.616,0l0,-16.802l8.209,0Z" style="fill:#1a1a19;fill-rule:nonzero;"/><path d="M289.327,36.906l0,-18.802l16.329,0l0,6.609l-0.6,0l0,5.585l0.72,0l0,6.608l-16.449,0Z" style="fill:#1a1a19;fill-rule:nonzero;"/><path d="M306.656,17.104l-18.329,0l0,20.802l18.449,0l0,-8.608l-0.72,0l0,-3.585l0.6,0l0,-8.609Zm-2,2l0,4.609l-8.809,0l0,1.704l8.209,0l0,4.056l-8.209,0l0,1.825l8.929,0l0,4.608l-14.449,0l0,-16.802l14.329,0Z" style="fill:#1a1a19;fill-rule:nonzero;"/><path d="M314.703,30.009c3.161,-0.023 3.161,-1.806 3.161,-2.48c0,-0.722 0,-2.504 -3.161,-2.528l0,5.008Zm-7.617,6.897l0,-18.802l7.433,0c6.894,0 11.009,3.461 11.009,9.257c0,5.906 -4.292,9.545 -11.201,9.545l-7.241,0Z" style="fill:#1a1a19;fill-rule:nonzero;"/><path d="M315.703,28.92l0,-2.83c1.161,0.235 1.161,0.888 1.161,1.391c0,0.542 0,1.202 -1.161,1.439Zm-1.184,-11.816l-8.433,0l0,20.802l8.241,0c7.526,0 12.201,-4.022 12.201,-10.497c0,-6.375 -4.602,-10.305 -12.009,-10.305Zm-0.816,13.905l0.936,0c2.569,0 4.225,-1.055 4.225,-3.48l0,-0.048c0,-2.424 -1.656,-3.48 -4.225,-3.48l-0.936,0l0,7.008Zm0.816,-11.905c6.673,0 10.009,3.289 10.009,8.257l0,0.048c0,4.969 -3.408,8.497 -10.201,8.497l-6.241,0l0,-16.802l6.433,0Z" style="fill:#1a1a19;fill-rule:nonzero;"/><path d="M342.648,24.705c0.623,0 0.793,-0.135 0.794,-0.137l-0.02,-0.101c-0.001,0.001 -0.001,0.001 -0.002,0.001c-0.021,0 -0.219,-0.115 -0.796,-0.115l-1.424,0l0,0.352l1.448,0Zm0.36,5.953c0.597,0 0.822,-0.154 0.845,-0.192l-0.002,-0.123c-0.022,-0.035 -0.241,-0.181 -0.819,-0.181l-1.832,0l0,0.496l1.808,0Zm-9.281,6.248l0,-18.802l10.409,0c2.509,0 4.252,0.574 5.484,1.806c0.867,0.867 1.325,2.016 1.325,3.323c0,1.571 -0.603,2.86 -1.733,3.782c1.518,0.941 2.285,2.343 2.285,4.187c0,3.484 -2.927,5.704 -7.457,5.704l-10.313,0Z" style="fill:#1a1a19;fill-rule:nonzero;"/><path d="M344.136,17.104l-11.409,0l0,20.802l11.313,0c6.242,0 8.457,-3.585 8.457,-6.656c0,-1.39 -0.371,-3.036 -1.778,-4.344c0.798,-0.997 1.226,-2.23 1.226,-3.625c0,-1.626 -0.56,-3.02 -1.618,-4.078c-1.432,-1.432 -3.399,-2.099 -6.191,-2.099Zm-3.936,14.554l2.808,0c1.224,0 1.848,-0.504 1.848,-1.225l0,-0.048c0,-0.719 -0.6,-1.223 -1.824,-1.223l-2.832,0l0,2.496Zm0,-5.953l2.448,0c1.2,0 1.776,-0.408 1.776,-1.152l0,-0.048c0,-0.745 -0.6,-1.152 -1.8,-1.152l-2.424,0l0,2.352Zm3.936,-6.601c2.328,0 3.792,0.529 4.777,1.513c0.599,0.6 1.032,1.464 1.032,2.616l0,0.048c0,1.992 -1.2,3.216 -3.001,3.84c2.16,0.624 3.553,1.776 3.553,4.081l0,0.048c0,2.688 -2.208,4.656 -6.457,4.656l-9.313,0l0,-16.802l9.409,0Z" style="fill:#1a1a19;fill-rule:nonzero;"/><path d="M356.792,36.906l0,-6.682l-7.079,-12.12l8.637,0l2.278,4.366l2.297,-4.366l8.568,0l-7.084,12.05l0,6.752l-7.617,0Z" style="fill:#1a1a19;fill-rule:nonzero;"/><path d="M373.241,17.104l-10.92,0l-0.562,1.069l-1.128,2.143l-1.114,-2.137l-0.561,-1.075l-10.985,0l1.757,3.009l6.064,10.382l0,7.411l9.617,0l0,-7.48l6.059,-10.308l1.773,-3.014Zm-3.496,2l-6.336,10.778l0,6.024l-5.617,0l0,-5.952l-6.336,-10.85l6.288,0l2.881,5.521l2.904,-5.521l6.216,0Z" style="fill:#1a1a19;fill-rule:nonzero;"/><path d="M191.846,24.338c0.93,0 1.401,-0.286 1.401,-0.849c0,-0.323 0,-0.897 -1.376,-0.897l-0.537,0l0,1.746l0.512,0Zm-8.128,10.568l0,-18.802l8.561,0c5.33,0 8.513,2.608 8.513,6.977c0,4.499 -3.308,7.264 -8.633,7.264l-0.825,0l0,4.561l-7.616,0Z" style="fill:#1671b9;fill-rule:nonzero;"/><path d="M192.279,15.104l-9.561,0l0,20.802l9.616,0l0,-4.562c5.751,-0.064 9.458,-3.274 9.458,-8.215c0,-4.968 -3.646,-8.025 -9.513,-8.025Zm-1.945,10.234l1.512,0c1.441,0 2.401,-0.649 2.401,-1.849l0,-0.048c0,-1.224 -0.888,-1.849 -2.376,-1.849l-1.537,0l0,3.746Zm1.945,-8.234c4.464,0 7.513,1.992 7.513,5.977l0,0.048c0,4.056 -3.097,6.216 -7.633,6.216l-1.825,0l0,4.561l-5.616,0l0,-16.802l7.561,0Z" style="fill:#fff;fill-rule:nonzero;"/><path d="M211.55,22.713c-1.629,0 -2.48,1.38 -2.48,2.744c0,1.436 0.868,2.841 2.528,2.841c1.629,0 2.481,-1.381 2.481,-2.745c0,-1.435 -0.869,-2.84 -2.529,-2.84Zm0,12.553c-5.688,0 -10.144,-4.266 -10.144,-9.713c0,-5.521 4.476,-9.808 10.192,-9.808c5.69,0 10.146,4.266 10.146,9.712c0,5.522 -4.478,9.809 -10.194,9.809Z" style="fill:#1671b9;fill-rule:nonzero;"/><path d="M211.598,27.298c-1.05,0 -1.528,-0.929 -1.528,-1.792c0,-0.652 0.309,-1.793 1.48,-1.793c1.05,0 1.529,0.929 1.529,1.793c0,0.65 -0.31,1.792 -1.481,1.792Zm0,-12.553c-6.276,0 -11.192,4.726 -11.192,10.761c0,6.055 4.895,10.76 11.144,10.76c6.277,0 11.194,-4.726 11.194,-10.76c0,-6.056 -4.896,-10.761 -11.146,-10.761Zm0,14.553c2.137,0 3.481,-1.777 3.481,-3.745l0,-0.047c0,-1.993 -1.369,-3.793 -3.529,-3.793c-2.135,0 -3.48,1.776 -3.48,3.744l0,0.049c0,1.992 1.368,3.792 3.528,3.792Zm0,-12.553c5.185,0 9.146,3.84 9.146,8.712l0,0.049c0,4.872 -4.009,8.76 -9.194,8.76c-5.184,0 -9.144,-3.84 -9.144,-8.713l0,-0.047c0,-4.873 4.008,-8.761 9.192,-8.761Z" style="fill:#fff;fill-rule:nonzero;"/><path d="M237.749,35.026l-2.247,-6.352l-2.245,6.352l-6.33,0l-6.145,-18.922l8.005,0l1.688,5.731l1.932,-5.779l6.288,0l1.932,5.78l1.689,-5.732l7.908,0l-6.146,18.922l-6.329,0Z" style="fill:#1671b9;fill-rule:nonzero;"/><path d="M239.416,15.056l-7.73,0l-0.456,1.367l-0.695,2.078l-0.577,-1.962l-0.423,-1.435l-10.129,0l0.849,2.618l5.496,16.922l0.45,1.382l7.763,0l0.472,-1.333l1.066,-3.018l1.068,3.018l0.472,1.333l7.762,0l0.449,-1.382l5.497,-16.922l0.851,-2.618l-10.033,0l-0.422,1.435l-0.579,1.963l-0.695,-2.079l-0.456,-1.367Zm-1.441,2l2.712,8.114l2.377,-8.066l5.784,0l-5.497,16.922l-4.895,0l-2.954,-8.352l-2.952,8.352l-4.896,0l-5.496,-16.922l5.881,0l2.376,8.066l2.711,-8.114l4.849,0Z" style="fill:#fff;fill-rule:nonzero;"/><path d="M250.607,34.906l0,-18.802l16.329,0l0,6.609l-0.6,0l0,5.585l0.72,0l0,6.608l-16.449,0Z" style="fill:#1671b9;fill-rule:nonzero;"/><path d="M267.936,15.104l-18.329,0l0,20.802l18.449,0l0,-8.608l-0.72,0l0,-3.585l0.6,0l0,-8.609Zm-2,2l0,4.609l-8.809,0l0,1.704l8.209,0l0,4.056l-8.209,0l0,1.825l8.929,0l0,4.608l-14.449,0l0,-16.802l14.329,0Z" style="fill:#fff;fill-rule:nonzero;"/><path d="M277.408,24.097c0.769,0 1.16,-0.212 1.16,-0.631c0,-0.231 0,-0.657 -1.137,-0.657l-1.448,0l0,1.288l1.425,0Zm1.406,10.809l-2.831,-4.289l0,4.289l-7.616,0l0,-18.802l9.209,0c3.013,0 5.287,0.745 6.756,2.214c1.23,1.231 1.829,2.765 1.829,4.691c0,2.345 -1.012,4.255 -2.876,5.512l4.372,6.385l-8.843,0Z" style="fill:#1671b9;fill-rule:nonzero;"/><path d="M277.576,15.104l-10.209,0l0,20.802l9.616,0l0,-1.959l0.7,1.061l0.593,0.898l11.278,0l-2.143,-3.13l-2.764,-4.036c1.636,-1.419 2.514,-3.376 2.514,-5.683c0,-2.253 -0.695,-4.018 -2.122,-5.446c-1.664,-1.664 -4.174,-2.507 -7.463,-2.507Zm-2.593,9.993l2.425,0c1.343,0 2.16,-0.6 2.16,-1.631l0,-0.049c0,-1.08 -0.84,-1.608 -2.137,-1.608l-2.448,0l0,3.288Zm2.593,-7.993c2.976,0 4.872,0.744 6.049,1.921c1.007,1.008 1.536,2.256 1.536,3.984l0,0.048c0,2.449 -1.273,4.153 -3.313,5.136l3.912,5.713l-6.408,0l-3.169,-4.801l-1.2,0l0,4.801l-5.616,0l0,-16.802l8.209,0Z" style="fill:#fff;fill-rule:nonzero;"/><path d="M287.327,34.906l0,-18.802l16.329,0l0,6.609l-0.6,0l0,5.585l0.72,0l0,6.608l-16.449,0Z" style="fill:#1671b9;fill-rule:nonzero;"/><path d="M304.656,15.104l-18.329,0l0,20.802l18.449,0l0,-8.608l-0.72,0l0,-3.585l0.6,0l0,-8.609Zm-2,2l0,4.609l-8.809,0l0,1.704l8.209,0l0,4.056l-8.209,0l0,1.825l8.929,0l0,4.608l-14.449,0l0,-16.802l14.329,0Z" style="fill:#fff;fill-rule:nonzero;"/><path d="M312.703,28.009c3.161,-0.023 3.161,-1.806 3.161,-2.48c0,-0.722 0,-2.504 -3.161,-2.528l0,5.008Zm-7.617,6.897l0,-18.802l7.433,0c6.894,0 11.009,3.461 11.009,9.257c0,5.906 -4.292,9.545 -11.201,9.545l-7.241,0Z" style="fill:#1671b9;fill-rule:nonzero;"/><path d="M313.703,26.92l0,-2.83c1.161,0.235 1.161,0.888 1.161,1.391c0,0.542 0,1.202 -1.161,1.439Zm-1.184,-11.816l-8.433,0l0,20.802l8.241,0c7.526,0 12.201,-4.022 12.201,-10.497c0,-6.375 -4.602,-10.305 -12.009,-10.305Zm-0.816,13.905l0.936,0c2.569,0 4.225,-1.055 4.225,-3.48l0,-0.048c0,-2.424 -1.656,-3.48 -4.225,-3.48l-0.936,0l0,7.008Zm0.816,-11.905c6.673,0 10.009,3.289 10.009,8.257l0,0.048c0,4.969 -3.408,8.497 -10.201,8.497l-6.241,0l0,-16.802l6.433,0Z" style="fill:#fff;fill-rule:nonzero;"/><path d="M340.648,22.705c0.623,0 0.793,-0.135 0.794,-0.137l-0.02,-0.101c-0.001,0.001 -0.001,0.001 -0.002,0.001c-0.021,0 -0.219,-0.115 -0.796,-0.115l-1.424,0l0,0.352l1.448,0Zm0.36,5.953c0.597,0 0.822,-0.154 0.845,-0.192l-0.002,-0.123c-0.022,-0.035 -0.241,-0.181 -0.819,-0.181l-1.832,0l0,0.496l1.808,0Zm-9.281,6.248l0,-18.802l10.409,0c2.509,0 4.252,0.574 5.484,1.806c0.867,0.867 1.325,2.016 1.325,3.323c0,1.571 -0.603,2.86 -1.733,3.782c1.518,0.941 2.285,2.343 2.285,4.187c0,3.484 -2.927,5.704 -7.457,5.704l-10.313,0Z" style="fill:#1671b9;fill-rule:nonzero;"/><path d="M342.136,15.104l-11.409,0l0,20.802l11.313,0c6.242,0 8.457,-3.585 8.457,-6.656c0,-1.39 -0.371,-3.036 -1.778,-4.344c0.798,-0.997 1.226,-2.23 1.226,-3.625c0,-1.626 -0.56,-3.02 -1.618,-4.078c-1.432,-1.432 -3.399,-2.099 -6.191,-2.099Zm-3.936,14.554l2.808,0c1.224,0 1.848,-0.504 1.848,-1.225l0,-0.048c0,-0.719 -0.6,-1.223 -1.824,-1.223l-2.832,0l0,2.496Zm0,-5.953l2.448,0c1.2,0 1.776,-0.408 1.776,-1.152l0,-0.048c0,-0.745 -0.6,-1.152 -1.8,-1.152l-2.424,0l0,2.352Zm3.936,-6.601c2.328,0 3.792,0.529 4.777,1.513c0.599,0.6 1.032,1.464 1.032,2.616l0,0.048c0,1.992 -1.2,3.216 -3.001,3.84c2.16,0.624 3.553,1.776 3.553,4.081l0,0.048c0,2.688 -2.208,4.656 -6.457,4.656l-9.313,0l0,-16.802l9.409,0Z" style="fill:#fff;fill-rule:nonzero;"/><path d="M354.792,34.906l0,-6.682l-7.079,-12.12l8.637,0l2.278,4.366l2.297,-4.366l8.568,0l-7.084,12.05l0,6.752l-7.617,0Z" style="fill:#1671b9;fill-rule:nonzero;"/><path d="M371.241,15.104l-10.92,0l-0.562,1.069l-1.128,2.143l-1.114,-2.137l-0.561,-1.075l-10.985,0l1.757,3.009l6.064,10.382l0,7.411l9.617,0l0,-7.48l6.059,-10.308l1.773,-3.014Zm-3.496,2l-6.336,10.778l0,6.024l-5.617,0l0,-5.952l-6.336,-10.85l6.288,0l2.881,5.521l2.904,-5.521l6.216,0Z" style="fill:#fff;fill-rule:nonzero;"/></g></svg>